<svg width="185" height="48" viewBox="0 0 185 48" fill="none" xmlns="http://www.w3.org/2000/svg">
<path d="M67.9117 22.7078C67.9117 10.4735 52.7092 0.5 33.9619 0.5C15.2145 0.5 0 10.4735 0 22.7078C0 23.0254 0 23.8975 0 24.01C0 36.9899 13.2873 47.5 33.9619 47.5C54.755 47.5 67.9237 36.9919 67.9237 24.01L67.9117 22.7078Z" fill="#2D3277"/>
<path d="M66.6115 22.6978C66.6115 34.2308 51.9938 43.5813 33.9619 43.5813C15.93 43.5813 1.3143 34.2308 1.3143 22.6978C1.3143 11.1648 15.932 1.81024 33.9619 1.81024C51.9918 1.81024 66.6115 11.1628 66.6115 22.6978Z" fill="#F7D032"/>
<path d="M23.1222 16.1083C23.1062 16.1405 22.7806 16.4781 22.9896 16.7494C23.5061 17.4065 25.0977 17.7843 26.7073 17.4226C27.6639 17.2076 28.8937 16.2309 30.0814 15.2884C31.3716 14.2635 32.6517 13.2386 33.9358 12.8287C35.2983 12.3946 36.1704 12.5815 36.7492 12.7563C37.3822 12.9452 38.1257 13.3592 39.3094 14.2515C41.546 15.9295 50.5289 23.7708 52.0803 25.1273C56.703 23.1227 61.5107 21.5746 66.4347 20.5053C65.7775 16.4861 63.3319 12.7985 59.6162 9.78418C54.4415 11.9585 48.1174 13.0919 41.9319 10.0716C41.8997 10.0595 38.5538 8.46389 35.252 8.55231C30.3447 8.66686 28.2185 10.791 25.9718 13.0377L23.1222 16.1083Z" fill="white"/>
<path d="M51.7125 25.9794C51.608 25.8849 41.1522 16.7353 38.7809 14.9548C37.4124 13.9259 36.6487 13.6647 35.8469 13.5642C35.3779 13.5251 34.9058 13.5693 34.4522 13.6948C33.359 13.9963 31.9081 14.9689 30.63 15.9737C29.3057 17.0287 28.0558 18.0235 26.8962 18.2807C25.4172 18.6143 23.6086 18.2224 22.7846 17.6658C22.491 17.4851 22.2542 17.2253 22.1014 16.9162C21.7979 16.2088 22.3586 15.6441 22.4511 15.5497L25.3368 12.4288C25.6724 12.0932 26.01 11.7596 26.3557 11.424C25.4659 11.5602 24.5873 11.7617 23.7271 12.0269C22.6822 12.3203 21.6754 12.5996 20.6585 12.5996C19.6061 12.4927 18.5603 12.329 17.5256 12.1093C14.6612 11.3701 11.8735 10.3608 9.1999 9.09491C5.09634 12.1555 2.35327 15.9737 1.56149 20.1737C2.1503 20.3305 3.10083 20.6118 3.49873 20.7002C12.781 22.7641 15.6748 24.8902 16.1993 25.3343C16.5075 24.9857 16.891 24.7117 17.3207 24.533C17.7504 24.3544 18.2151 24.2757 18.6797 24.303C19.1442 24.3303 19.5965 24.4628 20.0023 24.6906C20.4082 24.9183 20.7569 25.2353 21.0222 25.6177C21.6476 25.1117 22.4284 24.8371 23.2328 24.84C23.6845 24.8442 24.1325 24.9222 24.5591 25.0711C24.9726 25.2042 25.3531 25.4237 25.6753 25.7151C25.9975 26.0065 26.2541 26.363 26.428 26.7611C26.8334 26.576 27.2745 26.482 27.7202 26.4858C28.2526 26.4926 28.7779 26.6089 29.2635 26.8274C30.9757 27.5609 31.2409 29.2389 31.0862 30.509C31.209 30.4951 31.3324 30.4884 31.456 30.4889C32.0933 30.4876 32.72 30.652 33.2746 30.9661C33.8292 31.2801 34.2926 31.733 34.6193 32.2802C34.946 32.8274 35.1248 33.4502 35.1381 34.0874C35.1515 34.7246 34.9989 35.3543 34.6954 35.9147C35.246 36.2242 36.6547 36.9195 37.8906 36.7728C38.8773 36.6462 39.2531 36.3086 39.3878 36.1197C39.4782 35.9871 39.5767 35.8384 39.4862 35.7178L36.8738 32.8079C36.8738 32.8079 36.4437 32.406 36.5864 32.2432C36.7291 32.0805 36.9984 32.3136 37.1893 32.4703C38.5237 33.5836 40.1514 35.2636 40.1514 35.2636C40.1514 35.2636 40.2881 35.4947 40.8889 35.6032C41.4054 35.6977 42.3218 35.6414 42.9588 35.1209C43.1226 34.983 43.2726 34.8295 43.4069 34.6628C43.3987 34.672 43.3892 34.6801 43.3788 34.6869C44.046 33.8288 43.3024 32.9627 43.3024 32.9627L40.2459 29.5283C40.2459 29.5283 39.8078 29.1264 39.9565 28.9616C40.1052 28.7968 40.3725 29.0339 40.5594 29.1927C41.53 29.9965 42.8965 31.3751 44.2087 32.6592C44.464 32.8461 45.6155 33.5595 47.1427 32.5567C48.0691 31.9539 48.254 31.2043 48.2279 30.6396C48.1615 30.1547 47.9344 29.706 47.5828 29.3655L43.4069 25.1595C43.4069 25.1595 42.9648 24.7837 43.1216 24.5928C43.2502 24.432 43.5355 24.6631 43.7244 24.8199C45.0568 25.9332 48.658 29.2409 48.658 29.2409C48.7082 29.2751 49.9541 30.1613 51.4935 29.1826C51.7586 29.0275 51.9819 28.8101 52.144 28.5493C52.3062 28.2884 52.4022 27.9919 52.4239 27.6855C52.4362 27.3681 52.3799 27.0517 52.2589 26.758C52.1378 26.4642 51.9549 26.2001 51.7226 25.9834" fill="white"/>
<path d="M31.4499 31.3028C30.8028 31.3028 30.0955 31.6806 30.003 31.6244C29.9488 31.5902 30.0412 31.331 30.1035 31.1802C30.1658 31.0295 31.0179 28.4653 28.9379 27.573C27.3484 26.8898 26.3737 27.6574 26.0381 28.0071C25.9537 28.0975 25.9135 28.0895 25.9035 27.973C25.8713 27.5107 25.6664 26.2608 24.2958 25.8428C22.3365 25.2399 21.0805 26.6105 20.7529 27.1048C20.6876 26.5977 20.4531 26.1275 20.0875 25.7701C19.7219 25.4127 19.2465 25.189 18.738 25.1352C18.2296 25.0814 17.7178 25.2006 17.2855 25.4735C16.8531 25.7464 16.5255 26.1571 16.3554 26.6393C16.1853 27.1215 16.1827 27.6469 16.3481 28.1307C16.5135 28.6145 16.8372 29.0284 17.2669 29.3055C17.6966 29.5826 18.2072 29.7067 18.7161 29.6578C19.225 29.6089 19.7026 29.3899 20.0717 29.036C20.0837 29.0501 20.0898 29.0702 20.0837 29.1144C19.9873 29.6771 19.8125 31.7268 21.9547 32.5588C22.8148 32.8904 23.5462 32.6452 24.1511 32.2172C24.332 32.0906 24.3521 32.1448 24.336 32.3156C24.2576 32.8422 24.3561 33.9675 25.9437 34.6106C27.1494 35.0989 27.8588 34.5985 28.323 34.1665C28.524 33.9816 28.5822 34.0117 28.5943 34.2991C28.6199 34.8598 28.8096 35.4006 29.1398 35.8544C29.47 36.3083 29.9262 36.6552 30.4518 36.852C30.9773 37.0489 31.5492 37.0871 32.0963 36.9619C32.6434 36.8367 33.1417 36.5536 33.5293 36.1477C33.917 35.7418 34.1769 35.231 34.2768 34.6788C34.3768 34.1265 34.3123 33.557 34.0915 33.041C33.8707 32.525 33.5032 32.0852 33.0347 31.7762C32.5662 31.4672 32.0172 31.3026 31.4559 31.3028" fill="white"/>
<path d="M31.4499 36.8292C30.7647 36.8328 30.1049 36.5702 29.6096 36.0967C29.1143 35.6231 28.8223 34.9757 28.7953 34.2911C28.7953 34.1685 28.7792 33.8449 28.5059 33.8449C28.3808 33.859 28.2655 33.9192 28.1823 34.0137C28.0145 34.1932 27.8129 34.3378 27.5891 34.4391C27.3653 34.5405 27.1237 34.5967 26.8781 34.6046C26.582 34.5985 26.2899 34.5351 26.018 34.4177C24.5028 33.8047 24.4827 32.7638 24.545 32.3458C24.5594 32.2915 24.5616 32.2347 24.5515 32.1795C24.5415 32.1243 24.5193 32.072 24.4867 32.0263L24.3963 31.9439H24.2998C24.203 31.9506 24.1108 31.9879 24.0366 32.0504C23.667 32.335 23.2168 32.4954 22.7504 32.5086C22.5045 32.5065 22.2611 32.4581 22.033 32.3659C20.0375 31.5902 20.1943 29.7072 20.2907 29.1506C20.3013 29.1031 20.2991 29.0537 20.2843 29.0075C20.2694 28.9612 20.2425 28.9197 20.2063 28.8873L20.0636 28.7707L19.933 28.8974C19.5996 29.2246 19.1655 29.4297 18.701 29.4794C18.2365 29.5292 17.7687 29.4206 17.3736 29.1713C16.9785 28.922 16.6792 28.5467 16.524 28.106C16.3689 27.6653 16.3671 27.1852 16.5189 26.7434C16.6708 26.3015 16.9673 25.9239 17.3605 25.6717C17.7538 25.4195 18.2207 25.3074 18.6855 25.3536C19.1504 25.3999 19.5861 25.6018 19.9219 25.9265C20.2577 26.2513 20.4741 26.6799 20.5359 27.143L20.6082 27.6996L20.9137 27.2274C20.9479 27.1731 21.7859 25.9071 23.3252 25.9091C23.63 25.9105 23.9328 25.958 24.2235 26.0498C25.4513 26.4236 25.6583 27.5369 25.6905 28.0011C25.7146 28.2704 25.9055 28.2824 25.9437 28.2824C25.99 28.2792 26.0351 28.2665 26.0762 28.245C26.1174 28.2236 26.1536 28.1939 26.1828 28.1578C26.3799 27.9525 26.6169 27.7896 26.8791 27.679C27.1414 27.5684 27.4235 27.5126 27.7081 27.5148C28.102 27.5228 28.4902 27.6103 28.8495 27.772C30.8008 28.61 29.9166 31.0878 29.9066 31.1139C29.7378 31.5158 29.7317 31.7047 29.8905 31.8092L29.9648 31.8474H30.0231C30.1528 31.8314 30.2799 31.7983 30.4009 31.7489C30.7325 31.6166 31.0834 31.5393 31.4399 31.5198C31.7953 31.5101 32.1491 31.5716 32.4803 31.7009C32.8115 31.8302 33.1135 32.0245 33.3683 32.2725C33.6232 32.5204 33.8258 32.8169 33.9641 33.1445C34.1024 33.472 34.1737 33.824 34.1737 34.1795C34.1737 34.5351 34.1024 34.887 33.9641 35.2146C33.8258 35.5421 33.6232 35.8386 33.3683 36.0866C33.1135 36.3345 32.8115 36.5289 32.4803 36.6581C32.1491 36.7874 31.7953 36.849 31.4399 36.8392L31.4499 36.8292ZM52.1084 24.8943C48.893 22.0809 41.4415 15.61 39.4259 14.0988C38.2825 13.2206 37.4987 12.7584 36.8074 12.5575C36.3905 12.4264 35.9563 12.3587 35.5193 12.3565C34.9613 12.3629 34.4075 12.455 33.8775 12.6298C32.5753 13.0438 31.2791 14.0747 30.0231 15.0715L29.9588 15.1237C28.7892 16.0541 27.5795 17.0167 26.6651 17.2217C26.2646 17.3107 25.8556 17.3558 25.4453 17.3563C24.4224 17.3563 23.5 17.0589 23.1544 16.6188C23.0981 16.5465 23.1343 16.4179 23.2689 16.2591L23.285 16.237L26.1245 13.1845C28.3351 10.9739 30.4391 8.8699 35.2641 8.76339H35.5052C38.5075 8.76339 41.5119 10.1098 41.8475 10.2666C44.5322 11.6072 47.4879 12.3165 50.4887 12.3404C53.5352 12.3404 56.6782 11.5868 59.9819 10.0656C59.6121 9.75612 59.229 9.45335 58.8324 9.15727C55.9326 10.4153 53.1654 11.0503 50.4967 11.0483C47.6846 11.0253 44.9152 10.357 42.4021 9.09497C42.2635 9.02866 38.9456 7.46521 35.4972 7.4632H35.2259C31.1726 7.55765 28.8877 8.9965 27.3524 10.2585C25.8593 10.2947 24.5711 10.6604 23.4237 10.9739C22.4028 11.2593 21.5206 11.5065 20.6565 11.5045C20.3028 11.5045 19.6637 11.4723 19.6075 11.4703C18.6167 11.4401 13.6229 10.2163 9.65403 8.71315C9.25212 8.99985 8.86092 9.29526 8.48044 9.59938C12.6342 11.3035 17.6843 12.6178 19.2739 12.7203C19.716 12.7504 20.1902 12.8006 20.6605 12.8026C21.7155 12.8026 22.7665 12.5072 23.7834 12.2199C24.3862 12.0511 25.0494 11.8682 25.7487 11.7356C25.5618 11.9164 25.375 12.1033 25.1881 12.2882L22.3063 15.405C22.0813 15.6321 21.5889 16.243 21.9044 16.9946C22.0713 17.3414 22.3343 17.6329 22.662 17.8346C23.3493 18.2968 24.5772 18.6103 25.7186 18.6103C26.1287 18.6132 26.5379 18.57 26.9384 18.4817C28.1442 18.2124 29.4102 17.2036 30.7566 16.1385C31.8257 15.2885 33.3429 14.2114 34.5065 13.8938C34.8469 13.8035 35.1972 13.7555 35.5494 13.7512C35.6459 13.7512 35.7363 13.7512 35.8187 13.7652C36.5884 13.8637 37.3299 14.1249 38.6563 15.1197C41.0195 16.8962 51.4754 26.0437 51.5799 26.1342C51.7885 26.3305 51.9524 26.5694 52.0606 26.8346C52.1688 27.0999 52.2187 27.3853 52.2068 27.6715C52.1878 27.9457 52.1015 28.2111 51.9558 28.4441C51.81 28.6772 51.6091 28.8708 51.3709 29.0079C50.9636 29.2785 50.4872 29.4264 49.9983 29.4339C49.5712 29.4331 49.1531 29.3112 48.7926 29.0822C48.7544 29.0521 45.1753 25.7664 43.853 24.6612C43.6885 24.4859 43.4711 24.3695 43.2341 24.3296C43.1817 24.3285 43.1298 24.3395 43.0823 24.3618C43.0349 24.3841 42.9933 24.4171 42.9608 24.4582C42.7598 24.7154 42.9849 25.0611 43.2582 25.3002L47.4441 29.5083C47.7586 29.8122 47.9641 30.2112 48.0289 30.6437C48.0631 31.341 47.7295 31.9238 47.0362 32.3799C46.6005 32.6866 46.0837 32.8572 45.5511 32.8703C45.127 32.8689 44.7127 32.7432 44.3594 32.5086L43.7566 31.9157C42.6593 30.8366 41.5259 29.7213 40.698 29.028C40.5294 28.8563 40.3105 28.743 40.073 28.7044C40.0237 28.7042 39.9748 28.7139 39.9292 28.7329C39.8836 28.7519 39.8423 28.7798 39.8077 28.815C39.7153 28.9215 39.649 29.1104 39.8841 29.4178C39.945 29.5012 40.0122 29.5798 40.0851 29.653L43.1396 33.0853C43.1657 33.1155 43.7686 33.8309 43.21 34.5483L43.1014 34.6849C43.0124 34.7822 42.9171 34.8735 42.8161 34.9582C42.3836 35.2751 41.859 35.441 41.323 35.4305C41.1883 35.4307 41.0538 35.4192 40.9211 35.3963C40.6975 35.3799 40.4856 35.2902 40.3182 35.1411L40.282 35.1049C40.1152 34.9321 38.5759 33.3586 37.3018 32.2915C37.1412 32.1227 36.9292 32.0117 36.6989 31.976C36.6472 31.9755 36.596 31.9862 36.5488 32.0073C36.5016 32.0285 36.4596 32.0596 36.4256 32.0986C36.1744 32.3739 36.5522 32.7879 36.713 32.9366L39.3254 35.8103C39.3028 35.8742 39.2688 35.9334 39.225 35.9851C39.1325 36.1158 38.8231 36.4313 37.8725 36.5498C37.7578 36.5636 37.6424 36.5703 37.5269 36.5699C36.5522 36.5699 35.5173 36.0977 34.9767 35.8143C35.221 35.2979 35.3473 34.7337 35.3465 34.1624C35.3465 33.1316 34.9374 32.143 34.2091 31.4135C33.4808 30.6841 32.4928 30.2735 31.462 30.2719H31.3233C31.3916 29.2932 31.253 27.4384 29.3499 26.6245C28.8391 26.3943 28.2864 26.2718 27.7262 26.2648C27.3196 26.2632 26.9163 26.3367 26.5365 26.4818C26.1399 25.7152 25.4555 25.1371 24.6334 24.8742C24.186 24.7159 23.7154 24.6331 23.2408 24.629C22.461 24.6248 21.6999 24.8675 21.0664 25.3223C20.7789 24.9622 20.4186 24.6667 20.0091 24.4553C19.5996 24.244 19.15 24.1214 18.6899 24.0956C18.2298 24.0698 17.7694 24.1414 17.3388 24.3057C16.9082 24.4699 16.5172 24.7233 16.1912 25.049C15.3874 24.4301 12.162 22.3863 3.55496 20.427C3.13697 20.3305 2.18041 20.0572 1.59563 19.8844C1.49722 20.3491 1.42344 20.8186 1.37457 21.2911C1.37457 21.2911 2.96214 21.6729 3.27563 21.7433C12.0695 23.6966 14.9754 25.7262 15.4657 26.1121C15.2574 26.6129 15.1758 27.1573 15.2283 27.6972C15.2808 28.237 15.4658 28.7556 15.7667 29.2068C16.0677 29.658 16.4754 30.028 16.9536 30.2839C17.4318 30.5398 17.9658 30.6738 18.5082 30.6738C18.7104 30.6739 18.9122 30.6557 19.1111 30.6196C19.2418 31.2721 19.5396 31.8795 19.9753 32.3825C20.411 32.8855 20.9698 33.2668 21.597 33.4892C21.9714 33.637 22.37 33.714 22.7726 33.7163C23.0253 33.7174 23.2772 33.6864 23.5221 33.6239C23.7693 34.2509 24.326 35.0306 25.5679 35.537C25.9775 35.708 26.4162 35.7987 26.86 35.8043C27.2028 35.8036 27.5429 35.7431 27.8648 35.6254C28.1081 36.2216 28.4958 36.7478 28.993 37.1569C29.4902 37.5659 30.0813 37.8449 30.7132 37.9687C31.345 38.0925 31.9978 38.0572 32.6126 37.866C33.2274 37.6748 33.785 37.3337 34.2352 36.8734C34.8622 37.221 36.1865 37.852 37.5249 37.854C37.6908 37.8527 37.8565 37.842 38.0212 37.8219C39.3516 37.6531 39.9705 37.1346 40.2539 36.7307C40.306 36.6598 40.3517 36.5845 40.3905 36.5056C40.7325 36.6108 41.0878 36.6663 41.4456 36.6704C42.218 36.6552 42.9645 36.3885 43.5717 35.9108C44.261 35.4124 44.7533 34.705 44.8257 34.0881C44.8267 34.0787 44.8267 34.0693 44.8257 34.06C45.0603 34.1087 45.2994 34.1337 45.5391 34.1343C46.319 34.1238 47.0784 33.8826 47.7215 33.441C49.0759 32.5528 49.313 31.3932 49.2889 30.6276C49.5261 30.678 49.7679 30.7036 50.0104 30.704C50.7393 30.696 51.4504 30.4776 52.0581 30.075C52.4608 29.8285 52.7994 29.4903 53.0463 29.0879C53.2933 28.6856 53.4415 28.2305 53.4789 27.7599C53.529 27.1049 53.3708 26.4507 53.0267 25.891C55.2976 24.9124 60.4843 23.0193 66.5934 21.6428C66.5552 21.1705 66.4869 20.7023 66.4025 20.2361C61.5017 21.3182 56.7173 22.8729 52.1164 24.8782" fill="#2D3277"/>
<path d="M180.074 17.3805C179.483 18.1622 178.641 18.554 177.54 18.554C176.439 18.554 175.593 18.1521 175 17.3805C174.407 16.6088 174.112 15.4854 174.112 14.0446C174.112 12.6037 174.407 11.4964 175 10.7187C175.593 9.941 176.441 9.5431 177.54 9.5431C178.639 9.5431 179.483 9.93296 180.074 10.7107C180.665 11.4884 180.958 12.5977 180.958 14.0365C180.958 15.4754 180.661 16.5887 180.074 17.3805ZM183.089 8.65286C181.872 7.12692 180.026 6.36395 177.55 6.36395C175.074 6.36395 173.231 7.12357 172.02 8.64281C170.808 10.1746 170.168 12.0815 170.211 14.0345C170.211 16.1472 170.819 17.9559 172.034 19.4604C173.249 20.9649 175.091 21.7138 177.56 21.7071C180.036 21.7071 181.88 20.9582 183.093 19.4604C184.305 17.9626 184.913 16.1539 184.915 14.0345C184.956 12.0796 184.311 10.1722 183.093 8.64281" fill="#2D3277"/>
<path d="M150.14 15.5939C150.113 16.8586 149.752 17.7295 149.058 18.2064C148.392 18.6746 147.596 18.9245 146.782 18.9218C146.303 18.9356 145.834 18.7829 145.455 18.4897C145.094 18.2044 144.913 17.7382 144.913 17.0951C144.894 16.7702 144.968 16.4468 145.126 16.1622C145.284 15.8777 145.519 15.6437 145.805 15.4874C146.351 15.2232 146.936 15.0482 147.537 14.969L148.397 14.8102C148.739 14.7505 149.075 14.6631 149.402 14.549C149.658 14.4554 149.904 14.3341 150.134 14.1872L150.14 15.5939ZM152.053 7.37075C150.74 6.72876 149.294 6.40714 147.833 6.43228C145.393 6.43228 143.673 7.06797 142.672 8.33936C142.042 9.15123 141.687 10.1882 141.607 11.4502H145.248C145.306 10.9686 145.492 10.5113 145.787 10.1259C146.161 9.68645 146.8 9.46607 147.704 9.46473C148.508 9.46473 149.111 9.57526 149.537 9.80234C149.963 10.0294 150.16 10.4354 150.16 11.0262C150.16 11.5125 149.89 11.8682 149.356 12.0993C148.869 12.2749 148.362 12.3857 147.847 12.4289L146.556 12.5896C145.089 12.7725 143.974 13.086 143.221 13.516C141.845 14.3118 141.155 15.596 141.153 17.3684C141.153 18.7376 141.581 19.794 142.439 20.5375C143.293 21.2851 144.38 21.5965 145.694 21.6588C153.934 22.0266 153.837 17.3202 153.914 16.3395V10.9136C153.914 9.172 153.298 7.98836 152.067 7.36271" fill="#2D3277"/>
<path d="M133.273 9.66161C134.211 9.66161 134.904 9.95166 135.351 10.5318C135.658 10.9618 135.854 11.4608 135.922 11.9847H139.987C139.763 9.93491 139.046 8.50476 137.835 7.69423C136.624 6.8837 135.066 6.48179 133.163 6.48849C130.924 6.48849 129.169 7.17442 127.898 8.54629C126.626 9.91817 125.99 11.8387 125.988 14.3078C125.988 16.4942 126.565 18.274 127.717 19.6472C128.869 21.0204 130.665 21.707 133.104 21.707C135.547 21.707 137.391 20.8838 138.637 19.2372C139.38 18.3064 139.834 17.178 139.943 15.9918H135.896C135.845 16.6643 135.597 17.3069 135.182 17.8386C134.792 18.3128 134.135 18.552 133.205 18.552C131.893 18.552 131 17.9531 130.526 16.7554C130.267 16.1164 130.134 15.2683 130.134 14.2173C130.134 13.1121 130.267 12.2258 130.526 11.5566C131.018 10.2986 131.933 9.66965 133.273 9.66965" fill="#2D3277"/>
<path d="M124.901 6.48053C116.556 6.48053 117.05 13.8697 117.05 13.8697V21.3735H120.836V14.34C120.836 13.1878 120.98 12.3338 121.268 11.7778C121.79 10.7931 122.803 10.2987 124.321 10.2987C124.433 10.2987 124.584 10.2987 124.767 10.3148C124.95 10.3309 125.169 10.3389 125.402 10.3671V6.50866L125.08 6.48857C125.021 6.48514 124.961 6.48514 124.901 6.48857" fill="#2D3277"/>
<path d="M105.905 10.4012C106.441 9.85459 107.189 9.58062 108.149 9.57928C108.961 9.55179 109.754 9.82519 110.376 10.3469C110.979 10.8634 111.309 11.623 111.381 12.6198H104.9C104.989 11.7895 105.341 11.0093 105.905 10.3932V10.4012ZM110.989 17.4528C110.844 17.6675 110.67 17.8603 110.471 18.0255C109.936 18.4656 109.209 18.6003 108.354 18.6003C107.551 18.6003 106.912 18.4777 106.345 18.116C105.402 17.5352 104.87 16.5525 104.812 15.1016H115.292C115.315 14.1508 115.268 13.1996 115.149 12.256C114.999 11.19 114.608 10.1721 114.005 9.27985C113.398 8.35164 112.54 7.61395 111.532 7.15171C110.465 6.6902 109.312 6.46072 108.149 6.4785C106.039 6.4785 104.331 7.14367 103.007 8.472C101.683 9.80033 101.022 11.7134 101.022 14.2053C101.022 16.866 101.754 18.7858 103.218 19.9648C104.646 21.1327 106.44 21.7596 108.284 21.7352C110.603 21.7352 112.408 21.0359 113.698 19.6372C114.393 18.8997 114.827 18.1722 115.012 17.4528H110.989Z" fill="#2D3277"/>
<path d="M99.4941 21.3735H96.0357V12.662C96.0357 11.8582 95.7724 9.97519 93.4915 9.97519C91.9703 9.97519 90.869 11.0704 90.869 12.662V21.3735H87.4045V12.662C87.4045 11.8582 87.1714 9.97519 84.8885 9.97519C83.3412 9.97519 82.266 11.0704 82.266 12.662V21.3735H78.8055V12.7444C78.8055 9.14926 81.1929 6.4303 84.8885 6.4303C86.7253 6.4303 88.2204 7.20198 89.193 8.43987C89.7144 7.80564 90.371 7.29601 91.1147 6.9483C91.8585 6.6006 92.6706 6.42361 93.4915 6.4303C97.2675 6.4303 99.4941 9.04275 99.4941 12.7444V21.3735Z" fill="#2D3277"/>
<path d="M164.532 17.4005C163.982 18.1943 163.178 18.5862 162.107 18.5862C161.036 18.5862 160.246 18.1843 159.723 17.3805C159.201 16.5766 158.938 15.4231 158.938 14.0948C158.938 12.8636 159.195 11.832 159.709 11C160.224 10.1681 161.027 9.7521 162.121 9.7521C162.816 9.74429 163.491 9.9876 164.022 10.4374C164.91 11.195 165.354 12.5534 165.354 14.3118C165.354 15.5698 165.077 16.5947 164.522 17.3865L164.532 17.4005ZM169.066 1.91273C169.066 1.91273 165.248 1.51082 165.248 4.56939V8.62673C164.842 7.96555 164.275 7.418 163.6 7.03515C162.888 6.64541 162.086 6.44802 161.275 6.46242C159.383 6.46242 157.872 7.16577 156.743 8.57247C155.612 9.97918 155.049 12.0129 155.049 14.4646C155.049 16.5947 155.622 18.3397 156.769 19.6995C157.919 21.058 160.171 21.6548 162.169 21.6548C169.142 21.6548 169.062 15.6763 169.062 15.6763L169.066 1.91273Z" fill="#2D3277"/>
<path d="M146.78 32.4824C147.306 31.9398 148.048 31.6685 149.006 31.6685C149.813 31.6418 150.6 31.9153 151.217 32.4362C151.812 32.9493 152.143 33.6995 152.211 34.6869H145.781C145.868 33.8629 146.217 33.0884 146.776 32.4764L146.78 32.4824ZM151.82 39.4657C151.676 39.6785 151.503 39.87 151.305 40.0344C150.775 40.4705 150.027 40.6373 149.181 40.6373C148.377 40.6373 147.75 40.5167 147.183 40.157C146.246 39.5822 145.748 38.5774 145.69 37.1426H156.078C156.107 36.1976 156.065 35.2517 155.951 34.3131C155.802 33.2572 155.414 32.2491 154.818 31.3651C154.212 30.4429 153.357 29.7113 152.352 29.255C151.295 28.798 150.153 28.5706 149.002 28.5878C146.908 28.5878 145.212 29.247 143.898 30.5632C142.584 31.8795 141.934 33.7786 141.934 36.2443C141.934 38.8822 142.661 40.786 144.113 41.9555C145.529 43.1138 147.308 43.7357 149.137 43.7119C151.434 43.7119 153.222 43.0179 154.498 41.63C155.188 40.9005 155.62 40.1771 155.805 39.4657H151.82Z" fill="#2D3277"/>
<path d="M141.217 28.6079C141.167 28.6079 141.106 28.6079 141.038 28.6079C132.69 28.6079 133.185 35.9951 133.185 35.9951V43.3843H136.975V36.4553C136.975 35.3018 137.117 34.4457 137.409 33.8931C137.925 32.9084 138.944 32.4141 140.457 32.4141C140.574 32.4141 140.721 32.4141 140.903 32.4301C141.086 32.4462 141.305 32.4542 141.538 32.4804V28.634C141.372 28.624 141.263 28.62 141.217 28.6139" fill="#2D3277"/>
<path d="M107.625 26.6848V43.3522H111.178V23.9658C111.178 23.9658 107.625 23.8232 107.625 26.6848Z" fill="#2D3277"/>
<path d="M117.886 27.7077H114.082V23.9397H117.886V27.7077Z" fill="#2D3277"/>
<path d="M114.082 43.3783H117.9V28.9918H114.082V43.3783Z" fill="#2D3277"/>
<path d="M128.085 43.3482H124.252L119.228 28.9897H123.227L126.085 39.0839L128.613 30.2839C128.905 29.4198 129.481 28.9884 130.341 28.9897H133.155L128.085 43.3482Z" fill="#2D3277"/>
</svg>
