<svg width="78" height="42" viewBox="0 0 78 42" fill="none" xmlns="http://www.w3.org/2000/svg">
    <path fill-rule="evenodd" clip-rule="evenodd" d="M14.7101 34.3999C10.2819 34.3999 7.228 30.6897 7.228 25.2029C7.228 19.6637 10.2819 15.9535 14.7101 15.9535C19.1384 15.9535 22.1927 19.6637 22.1927 25.1505C22.1927 30.6897 19.1384 34.3999 14.7101 34.3999ZM14.7101 41.3503C22.905 41.3503 29.4205 34.4523 29.4205 25.1505C29.4205 15.9535 23.2615 9.00305 14.7101 9.00305C6.51518 9.00305 0 15.9011 0 25.2029C0 34.5568 6.15877 41.3503 14.7101 41.3503Z" fill="#6E0AD6"/>
    <path fill-rule="evenodd" clip-rule="evenodd" d="M35.4774 29.0175H49.5259C50.4928 29.0175 51.0528 28.4428 51.0528 27.4496V22.9033C51.0528 21.9106 50.4928 21.336 49.5259 21.336H40.1092V2.00061C40.1092 1.00765 39.5494 0.432983 38.5825 0.432983H33.9502C32.9832 0.432983 32.4235 1.00765 32.4235 2.00061V25.8822C32.4235 27.92 33.4922 29.0175 35.4774 29.0175Z" fill="#8CE563"/>
    <path fill-rule="evenodd" clip-rule="evenodd" d="M54.5655 40.8796L63.015 30.8986L71.2099 40.8796C71.9225 41.768 72.8389 41.768 73.653 41.0364L76.9615 38.0578C77.7759 37.326 77.8777 36.3854 77.1143 35.5496L68.0032 25.098L76.3 15.5351C77.0125 14.699 76.9615 13.8103 76.1474 13.0266L73.0423 10.1528C72.2279 9.36858 71.3117 9.42096 70.5989 10.3092L63.015 19.3498L55.2783 10.3092C54.5655 9.47309 53.6493 9.36858 52.8349 10.1528L49.628 13.079C48.8136 13.8627 48.7629 14.699 49.5262 15.5872L57.9757 25.1501L48.7628 35.6541C47.999 36.5421 48.1011 37.4305 48.9154 38.1623L52.1221 41.0364C52.9367 41.768 53.8526 41.7159 54.5654 40.8796" fill="#F28000"/>
</svg>
