<svg width="384" height="120" viewBox="0 0 96 30" fill="none" xmlns="http://www.w3.org/2000/svg">
<path d="M20.8867 19.0029C20.8867 24.8029 16.9377 29.5 10.422 29.5C3.90628 29.5 0 24.8029 0 19.0029C0 13.2441 3.99 8.50586 10.3825 8.50586C16.775 8.50586 20.8867 13.2441 20.8867 19.0029ZM4.96775 19.0029C4.96775 22.0661 6.79847 24.9249 10.422 24.9249C14.0455 24.9249 15.8778 22.0725 15.8778 19.0029C15.8778 15.9809 13.7612 13.0397 10.422 13.0397C6.83954 13.0397 4.96775 15.9809 4.96775 19.0029Z" fill="#0037FF"/>
<path d="M28.9062 8.91473L29.2726 11.2427C30.819 8.75151 32.8962 8.3902 34.9306 8.3902C37.0078 8.3902 39.0028 9.20632 40.1022 10.3093L37.8623 14.6323C36.8451 13.775 35.9084 13.325 34.2799 13.325C31.6736 13.325 29.2726 14.7147 29.2726 18.4309V29.0483H24.3049V8.91473H28.9062Z" fill="#0037FF"/>
<path d="M71.6936 0.5V29.0515H66.7685V0.5H71.6936Z" fill="#0037FF"/>
<path d="M96.0001 19.0029C96.0001 24.8029 92.0511 29.5 85.537 29.5C79.0228 29.5 75.1118 24.8029 75.1118 19.0029C75.1118 13.2441 79.1018 8.50586 85.4943 8.50586C91.8869 8.50586 96.0001 13.2441 96.0001 19.0029ZM80.0812 19.0029C80.0812 22.0661 81.9135 24.9249 85.537 24.9249C89.1605 24.9249 90.9928 22.0725 90.9928 19.0029C90.9928 15.9809 88.8746 13.0397 85.537 13.0397C81.9529 13.0397 80.0843 15.9809 80.0843 19.0029H80.0812Z" fill="#0037FF"/>
<path d="M16.9947 7.69135C18.5213 7.69135 19.7589 6.44973 19.7589 4.91812C19.7589 3.38651 18.5213 2.1449 16.9947 2.1449C15.468 2.1449 14.2304 3.38651 14.2304 4.91812C14.2304 6.44973 15.468 7.69135 16.9947 7.69135Z" fill="#0037FF"/>
<path d="M52.5239 29.5C56.2801 29.5 59.1834 27.9375 60.9667 25.5002C61.8844 23.9266 62.4073 21.9061 62.4073 19.4926V8.91473H57.4411V19.453C57.4411 22.5162 55.7715 24.841 52.5966 24.841H52.456H52.317C49.1405 24.841 47.4724 22.513 47.4724 19.453V8.91473H42.5031V19.4926C42.5031 21.3277 42.8064 22.9346 43.3529 24.2911C44.9925 27.4066 48.1769 29.5 52.5239 29.5Z" fill="#0037FF"/>
</svg>
